<?xml version="1.0" encoding="UTF-8"?>
<svg xmlns="http://www.w3.org/2000/svg" xmlns:xlink="http://www.w3.org/1999/xlink" viewBox="0 0 80 80" width="80px" height="80px">
<g id="surface157962844">
<path style=" stroke:none;fill-rule:nonzero;fill:rgb(99.607843%,90.196079%,80.000001%);fill-opacity:1;" d="M 40 77 C 19.597656 77 3 60.402344 3 40 C 3 19.597656 19.597656 3 40 3 C 60.402344 3 77 19.597656 77 40 C 77 60.402344 60.402344 77 40 77 Z M 40 77 "/>
<path style=" stroke:none;fill-rule:nonzero;fill:rgb(99.607843%,90.196079%,80.000001%);fill-opacity:1;" d="M 40 4 C 59.851562 4 76 20.148438 76 40 C 76 59.851562 59.851562 76 40 76 C 20.148438 76 4 59.851562 4 40 C 4 20.148438 20.148438 4 40 4 M 40 2 C 19.015625 2 2 19.015625 2 40 C 2 60.984375 19.015625 78 40 78 C 60.984375 78 78 60.984375 78 40 C 78 19.015625 60.984375 2 40 2 Z M 40 2 "/>
<path style=" stroke:none;fill-rule:nonzero;fill:rgb(100%,100%,100%);fill-opacity:1;" d="M 27.980469 56.261719 L 23.738281 52.019531 L 52.019531 23.738281 L 56.261719 27.980469 Z M 27.980469 56.261719 "/>
<path style=" stroke:none;fill-rule:nonzero;fill:rgb(100%,100%,100%);fill-opacity:1;" d="M 23.738281 27.980469 L 27.980469 23.738281 L 56.261719 52.019531 L 52.019531 56.261719 Z M 23.738281 27.980469 "/>
<path style=" stroke:none;fill-rule:nonzero;fill:rgb(100%,100%,100%);fill-opacity:1;" d="M 56.265625 27.980469 L 52.019531 23.734375 L 40 35.757812 L 27.980469 23.734375 L 23.734375 27.980469 L 35.757812 40 L 23.734375 52.019531 L 27.980469 56.265625 L 40 44.242188 L 52.019531 56.265625 L 56.265625 52.019531 L 44.242188 40 Z M 56.265625 27.980469 "/>
</g>
</svg>
